<svg width="28" height="26" viewBox="0 0 28 26" fill="none" xmlns="http://www.w3.org/2000/svg">
<g clip-path="url(#clip0)">
<g clip-path="url(#clip1)">
<path d="M14.5941 20.7017L17.4022 23.5462L18.8057 22.1245L20.1861 20.7028L21.5897 19.281L18.7826 16.4375L20.1861 15.0158L22.9942 17.8604L24.3978 16.4354L27.2059 13.5909L22.9944 9.32466L20.1873 12.1682L18.8069 10.7464L21.615 7.90183L20.2115 6.48009L18.8059 5.05834L17.4024 3.6366L14.5953 6.48009L13.1918 5.08172L11.7862 3.65997L7.57472 7.92616L8.97823 9.3479L10.3817 10.7463L8.97823 12.168L6.17012 9.32344L3.36309 12.1669L1.95957 13.5908L6.17106 17.857L8.9781 15.0135L10.3816 16.4352L7.57458 19.2787L11.785 23.5438L13.1885 22.1221L14.5941 20.7017ZM18.7825 19.2799L17.402 20.7017L15.9985 19.2799L17.379 17.8582L18.7825 19.2799ZM24.3976 13.5908L22.9941 15.0125L21.5906 13.5908L22.9941 12.169L24.3976 13.5908ZM18.7825 13.5908L17.379 15.0125L15.9985 13.5908L17.402 12.169L18.7825 13.5908ZM17.402 6.48001L18.8056 7.90175L17.402 9.3235L15.9985 7.90175L17.402 6.48001ZM10.3824 7.92616L11.786 6.50441L13.1895 7.90278L11.786 9.32453L10.3824 7.92616ZM13.1906 10.7463L14.5941 9.32453L15.9976 10.7463L14.5941 12.168L13.1906 10.7463ZM4.7673 13.5909L6.17082 12.1691L7.57434 13.5909L6.17082 15.0126L4.7673 13.5909ZM10.3824 13.5909L11.786 12.1691L13.1905 13.5909L11.787 15.0126L10.3824 13.5909ZM13.1906 16.4354L14.5941 15.0137L15.9745 16.4354L14.5941 17.8572L13.1906 16.4354ZM10.3824 19.28L11.786 17.8583L13.1895 19.28L11.786 20.7018L10.3824 19.28Z" fill="#FFFFFF" fill-opacity="1"/>
</g>
</g>
<defs>
<clipPath id="clip0">
<rect width="28" height="26" fill="white"/>
</clipPath>
<clipPath id="clip1">
<rect width="27.1818" height="26.8333" fill="white" transform="translate(28) rotate(90)"/>
</clipPath>
</defs>
</svg>
