<svg width="241.60625px" height="70.4px" xmlns="http://www.w3.org/2000/svg" viewBox="129.196875 39.8 241.60625 70.4" style="background: rgba(0, 0, 0, 0);" preserveAspectRatio="xMidYMid"><defs><filter id="editing-extrude-glow"><feFlood flood-color="#ffffff" result="flood-1"></feFlood><feMorphology operator="erode" radius="1" in="SourceAlpha" result="erode"></feMorphology><feComposite operator="in" in="flood-1" in2="erode" result="comp1"></feComposite><feConvolveMatrix order="0,0" divisor="1" in="comp1" result="convolve" kernelMatrix=""></feConvolveMatrix><feOffset dx="0" dy="0" in="convolve" result="extrude"></feOffset><feComposite operator="in" in="flood-1" in2="extrude" result="comp-extrude"></feComposite><feFlood flood-color="#ffffff" result="flood-2"></feFlood><feComposite operator="in" in="flood-2" in2="SourceAlpha" result="comp2"></feComposite><feMorphology operator="dilate" radius="1" in="comp2" result="dilate"></feMorphology><feOffset dx="0" dy="0" in="dilate" result="offset"></feOffset><feGaussianBlur in="offset" stdDeviation="5.8" result="blur"></feGaussianBlur><feComponentTransfer in="blur" result="shadow"><feFuncA type="linear" slope="0.8" intercept="-0.2"></feFuncA></feComponentTransfer><feMerge><feMergeNode in="shadow"></feMergeNode><feMergeNode in="comp-extrude"></feMergeNode><feMergeNode in="SourceGraphic"></feMergeNode></feMerge></filter></defs><g filter="url(#editing-extrude-glow)"><g transform="translate(169.16001307964325, 90.98499965667725)"><path d="M15.66-13.18L12.92-13.18L12.92-13.18Q12.56-15.98 8.41-15.98L8.41-15.98L8.41-15.98Q4.25-15.98 4.25-13.39L4.25-13.39L4.25-13.39Q4.25-12.31 5.13-11.75L5.13-11.75L5.13-11.75Q6.01-11.20 7.34-10.84L7.34-10.84L7.34-10.84Q8.68-10.48 10.24-10.17L10.24-10.17L10.24-10.17Q11.81-9.86 13.14-9.31L13.14-9.31L13.14-9.31Q14.47-8.75 15.35-7.78L15.35-7.78L15.35-7.78Q16.24-6.80 16.24-5.11L16.24-5.11L16.24-5.11Q16.24-2.48 14.26-1.10L14.26-1.10L14.26-1.10Q12.28 0.29 8.89 0.29L8.89 0.29L8.89 0.29Q5.29 0.29 3.17-1.51L3.17-1.51L3.17-1.51Q1.22-3.10 1.08-5.65L1.08-5.65L3.89-5.65L3.89-5.65Q4.14-3.17 6.70-2.30L6.70-2.30L6.70-2.30Q7.63-2.02 8.55-2.02L8.55-2.02L8.55-2.02Q9.47-2.02 10.26-2.12L10.26-2.12L10.26-2.12Q11.05-2.23 11.81-2.52L11.81-2.52L11.81-2.52Q13.54-3.20 13.54-4.86L13.54-4.86L13.54-4.86Q13.54-5.98 12.65-6.57L12.65-6.57L12.65-6.57Q11.77-7.16 10.44-7.54L10.44-7.54L10.44-7.54Q9.11-7.92 7.54-8.23L7.54-8.23L7.54-8.23Q5.98-8.53 4.64-9.07L4.64-9.07L4.64-9.07Q3.31-9.61 2.43-10.55L2.43-10.55L2.43-10.55Q1.55-11.48 1.55-13.14L1.55-13.14L1.55-13.14Q1.55-15.59 3.33-16.94L3.33-16.94L3.33-16.94Q5.11-18.29 8.60-18.29L8.60-18.29L8.60-18.29Q11.92-18.29 13.82-16.70L13.82-16.70L13.82-16.70Q15.41-15.37 15.66-13.18L15.66-13.18ZM24.34 0L21.64 0L21.64-15.62L17.96-15.62L17.96-18.00L21.64-18.00L21.64-24.44L24.34-24.44L24.34-18.00L28.48-18.00L28.48-15.62L24.34-15.62L24.34 0ZM40.75-18.29L40.93-18.29L40.93-15.59L40.61-15.59L40.61-15.59Q37.69-15.59 35.86-13.25L35.86-13.25L35.86-13.25Q34.13-11.02 34.13-7.92L34.13-7.92L34.13 0L31.43 0L31.43-18.00L34.13-18.00L34.13-13.57L34.13-13.57Q34.99-16.38 37.87-17.71L37.87-17.71L37.87-17.71Q39.06-18.29 40.75-18.29L40.75-18.29ZM51.41-2.16L51.41-2.16L51.41-2.16Q55.04-2.16 56.63-5.18L56.63-5.18L59.58-5.18L59.58-5.18Q58.64-2.74 56.61-1.22L56.61-1.22L56.61-1.22Q54.58 0.29 51.37 0.29L51.37 0.29L51.37 0.29Q47.30 0.29 44.75-2.41L44.75-2.41L44.75-2.41Q42.26-5.04 42.26-9.00L42.26-9.00L42.26-9.00Q42.26-13.00 44.64-15.59L44.64-15.59L44.64-15.59Q47.16-18.29 51.19-18.29L51.19-18.29L51.19-18.29Q55.22-18.29 57.74-15.59L57.74-15.59L57.74-15.59Q60.12-13.00 60.12-9.00L60.12-9.00L60.12-7.92L45.04-7.92L45.04-7.92Q45.32-5.44 47.02-3.82L47.02-3.82L47.02-3.82Q48.74-2.16 51.41-2.16ZM51.19-15.84L51.19-15.84L51.19-15.84Q48.71-15.84 47.02-14.29L47.02-14.29L47.02-14.29Q45.43-12.82 45.07-10.44L45.07-10.44L57.31-10.44L57.31-10.44Q56.95-12.82 55.37-14.29L55.37-14.29L55.37-14.29Q53.68-15.84 51.19-15.84ZM77.47 0L77.47-2.88L77.47-2.88Q75.31 0.29 71.03 0.29L71.03 0.29L71.03 0.29Q67.14 0.29 64.69-2.41L64.69-2.41L64.69-2.41Q62.32-5.08 62.32-9.00L62.32-9.00L62.32-9.00Q62.32-12.92 64.69-15.59L64.69-15.59L64.69-15.59Q67.14-18.29 71.21-18.29L71.21-18.29L71.21-18.29Q75.28-18.29 77.47-15.08L77.47-15.08L77.47-18.00L80.17-18.00L80.17 0L77.47 0ZM71.39-2.16L71.39-2.16L71.39-2.16Q74.30-2.16 76.00-4.18L76.00-4.18L76.00-4.18Q77.62-6.08 77.62-9.00L77.62-9.00L77.62-9.00Q77.62-11.92 76.00-13.82L76.00-13.82L76.00-13.82Q74.30-15.84 71.39-15.84L71.39-15.84L71.39-15.84Q68.51-15.84 66.71-13.82L66.71-13.82L66.71-13.82Q65.02-11.92 65.02-9.00L65.02-9.00L65.02-9.00Q65.02-6.08 66.71-4.18L66.71-4.18L66.71-4.18Q68.51-2.16 71.39-2.16ZM87.55-18.00L87.55-15.26L87.55-15.26Q89.35-18.29 93.02-18.29L93.02-18.29L93.02-18.29Q94.82-18.29 96.35-17.33L96.35-17.33L96.35-17.33Q97.88-16.38 98.75-14.65L98.75-14.65L98.75-14.65Q99.97-16.92 102.56-17.89L102.56-17.89L102.56-17.89Q103.61-18.29 104.92-18.29L104.92-18.29L104.92-18.29Q106.24-18.29 107.44-17.77L107.44-17.77L107.44-17.77Q108.65-17.24 109.58-16.27L109.58-16.27L109.58-16.27Q111.60-14.11 111.60-10.87L111.60-10.87L111.60 0L108.90 0L108.90-10.80L108.90-10.80Q108.90-13.03 107.64-14.47L107.64-14.47L107.64-14.47Q106.38-15.84 104.44-15.84L104.44-15.84L104.44-15.84Q102.38-15.84 101.02-14.51L101.02-14.51L101.02-14.51Q99.58-13.14 99.58-10.76L99.58-10.76L99.58 0L96.88 0L96.88-10.80L96.88-10.80Q96.88-13.03 95.62-14.47L95.62-14.47L95.62-14.47Q94.36-15.84 92.41-15.84L92.41-15.84L92.41-15.84Q90.36-15.84 88.99-14.51L88.99-14.51L88.99-14.51Q87.55-13.14 87.55-10.76L87.55-10.76L87.55 0L84.85 0L84.85-18.00L87.55-18.00ZM116.10 0L116.10-18.00L118.80-18.00L118.80 0L116.10 0ZM115.99-24.55L118.91-24.55L118.91-21.02L115.99-21.02L115.99-24.55ZM123.48-18.00L126.18-18.00L126.18-15.19L126.18-15.19Q127.15-16.49 128.56-17.39L128.56-17.39L128.56-17.39Q129.96-18.29 131.76-18.29L131.76-18.29L131.76-18.29Q133.56-18.29 134.86-17.78L134.86-17.78L134.86-17.78Q136.15-17.28 137.12-16.27L137.12-16.27L137.12-16.27Q139.36-14.08 139.36-10.48L139.36-10.48L139.36 0L136.66 0L136.66-10.40L136.66-10.40Q136.66-12.89 135.25-14.36L135.25-14.36L135.25-14.36Q133.85-15.84 131.62-15.84L131.62-15.84L131.62-15.84Q129.35-15.84 127.76-14.33L127.76-14.33L127.76-14.33Q126.18-12.78 126.18-10.37L126.18-10.37L126.18 0L123.48 0L123.48-18.00ZM157.90-15.12L157.90-15.12L157.90-18.00L160.60-18.00L160.60-0.54L160.60-0.54Q160.60 3.35 158.38 5.38L158.38 5.38L158.38 5.38Q156.17 7.42 152.42 7.42L152.42 7.42L152.42 7.42Q148.68 7.42 146.57 5.98L146.57 5.98L146.57 5.98Q144.47 4.54 143.71 2.16L143.71 2.16L146.70 2.16L146.70 2.16Q147.85 4.97 151.96 4.97L151.96 4.97L151.96 4.97Q155.09 4.97 156.49 3.53L156.49 3.53L156.49 3.53Q157.90 2.09 157.90-0.72L157.90-0.72L157.90-3.20L157.90-3.20Q155.70 0 151.45 0L151.45 0L151.45 0Q147.56 0 145.12-2.66L145.12-2.66L145.12-2.66Q142.74-5.26 142.74-9.14L142.74-9.14L142.74-9.14Q142.74-13.03 145.12-15.62L145.12-15.62L145.12-15.62Q147.56-18.29 151.65-18.29L151.65-18.29L151.65-18.29Q155.74-18.29 157.90-15.12ZM151.81-2.45L151.81-2.45L151.81-2.45Q153.29-2.45 154.44-2.97L154.44-2.97L154.44-2.97Q155.59-3.49 156.42-4.39L156.42-4.39L156.42-4.39Q158.04-6.26 158.04-9.14L158.04-9.14L158.04-9.14Q158.04-12.02 156.42-13.90L156.42-13.90L156.42-13.90Q154.66-15.84 151.81-15.84L151.81-15.84L151.81-15.84Q148.90-15.84 147.13-13.90L147.13-13.90L147.13-13.90Q145.44-11.99 145.44-9.14L145.44-9.14L145.44-9.14Q145.44-6.30 147.13-4.39L147.13-4.39L147.13-4.39Q148.90-2.45 151.81-2.45Z" fill="#ffffff"></path></g></g><style>text {
  font-size: 64px;
  font-family: Arial Black;
  dominant-baseline: central;
  text-anchor: middle;
}</style></svg>