<svg viewBox="0 0 200 200" xmlns="http://www.w3.org/2000/svg" class="thumbnail__fallback"><g fill="#f5f5f5"><path d="M3 0h194a3 3 0 013 3v194a3 3 0 01-3 3H3a3 3 0 01-3-3V3a3 3 0 013-3z"></path><path d="M109.498 89.411c.605 0 1.319.518 2.142 1.554l21.72 28.975H70.751l13.294-17.834c.608-.854 1.277-1.28 2.005-1.28.607 0 1.154.296 1.639.889l5.95 8.026 13.23-18.3c1.061-1.353 1.937-2.03 2.629-2.03zM74.41 83.305a5.288 5.288 0 015.285 5.292 5.288 5.288 0 01-5.285 5.292 5.288 5.288 0 01-5.285-5.292 5.288 5.288 0 015.285-5.292z" fill="#767676"></path></g></svg>
