<svg width="16" height="16" viewBox="0 0 16 16" fill="none" xmlns="http://www.w3.org/2000/svg">
<g opacity="0.7">
<path d="M8 0C3.57818 0 0 3.57818 0 8C0 12.4218 3.57818 16 8 16C12.4218 16 16 12.4218 16 8C16 3.57818 12.4218 0 8 0ZM12.5964 9.71637C12.3636 10.5018 11.9564 11.2291 11.3455 11.7818C10.7636 12.3055 10.0655 12.6545 9.30909 12.8291C8.46545 13.0327 7.59273 13.0327 6.77818 12.8C6.13818 12.6255 5.49818 12.3055 4.97454 11.8982C4.42182 11.4618 3.95636 10.88 3.63636 10.24C3.14182 9.25091 2.99636 8.11637 3.2 7.04C3.28727 6.60364 3.43273 6.19636 3.63636 5.78909C4.21818 4.65455 5.23636 3.75273 6.45818 3.31637C7.53455 2.93818 8.72727 2.96727 9.80364 3.34545C10.3855 3.54909 10.9382 3.89818 11.4036 4.33455C11.2582 4.50909 11.0836 4.65455 10.9091 4.82909C10.6182 5.12 10.2982 5.44 10.0073 5.73091C9.71637 5.44 9.33818 5.23636 8.93091 5.09091C8.46546 4.94545 7.94182 4.91637 7.47636 5.03273C6.92364 5.14909 6.4 5.44 5.99273 5.84727C5.67273 6.16727 5.41091 6.57454 5.26546 7.01091C5.06182 7.62182 5.06182 8.32 5.26546 8.93091C5.46909 9.54182 5.87636 10.0945 6.4 10.4436C6.72 10.6764 7.09818 10.8509 7.50546 10.9091C7.88364 10.9964 8.29091 10.9673 8.69818 10.9091C9.07636 10.8509 9.45455 10.7055 9.80364 10.4727C10.3273 10.1236 10.7055 9.57091 10.7927 8.93091C9.89091 8.93091 8.98909 8.93091 8.08727 8.93091C8.08727 8.29091 8.08727 7.65091 8.08727 7.01091C9.62909 7.01091 11.2 7.01091 12.7418 7.01091C12.8873 7.94182 12.8291 8.84364 12.5964 9.71637Z" fill="#242629"/>
</g>
</svg>
