<svg width="16" height="16" viewBox="0 0 16 16" fill="none" xmlns="http://www.w3.org/2000/svg">
<g opacity="0.7">
<path d="M12.6667 2H3.33333C2.59695 2 2 2.59695 2 3.33333V12.6667C2 13.403 2.59695 14 3.33333 14H12.6667C13.403 14 14 13.403 14 12.6667V3.33333C14 2.59695 13.403 2 12.6667 2Z" stroke="#242629" stroke-width="1.25" stroke-linecap="round" stroke-linejoin="round"/>
<path d="M5.66602 6.66675C6.2183 6.66675 6.66602 6.21903 6.66602 5.66675C6.66602 5.11446 6.2183 4.66675 5.66602 4.66675C5.11373 4.66675 4.66602 5.11446 4.66602 5.66675C4.66602 6.21903 5.11373 6.66675 5.66602 6.66675Z" stroke="#242629" stroke-width="1.25" stroke-linecap="round" stroke-linejoin="round"/>
<path d="M14.0007 10.0001L10.6673 6.66675L3.33398 14.0001" stroke="#242629" stroke-width="1.25" stroke-linecap="round" stroke-linejoin="round"/>
</g>
</svg>
