<svg width="20" height="19" viewBox="0 0 20 19" fill="none" xmlns="http://www.w3.org/2000/svg">
<path d="M10 17.7265C7.67936 17.7265 5.45376 16.8627 3.81282 15.3252C2.17187 13.7877 1.25 11.7024 1.25 9.52808C1.25 7.35372 2.17187 5.26842 3.81282 3.73091C5.45376 2.19341 7.67936 1.32965 10 1.32965C12.3206 1.32965 14.5462 2.19341 16.1872 3.73091C17.8281 5.26842 18.75 7.35372 18.75 9.52808C18.75 11.7024 17.8281 13.7877 16.1872 15.3252C14.5462 16.8627 12.3206 17.7265 10 17.7265ZM10 18.8977C12.6522 18.8977 15.1957 17.9106 17.0711 16.1534C18.9464 14.3963 20 12.0131 20 9.52808C20 7.0431 18.9464 4.65989 17.0711 2.90275C15.1957 1.1456 12.6522 0.158447 10 0.158447C7.34784 0.158447 4.8043 1.1456 2.92893 2.90275C1.05357 4.65989 0 7.0431 0 9.52808C0 12.0131 1.05357 14.3963 2.92893 16.1534C4.8043 17.9106 7.34784 18.8977 10 18.8977Z" fill="black"/>
<path d="M11.1624 7.87434L8.29994 8.21047L8.19744 8.65553L8.75994 8.75274C9.12744 8.83472 9.19994 8.95887 9.11994 9.30203L8.19744 13.3638C7.95494 14.4143 8.32869 14.9086 9.20744 14.9086C9.88869 14.9086 10.6799 14.6134 11.0387 14.2082L11.1487 13.721C10.8987 13.9271 10.5337 14.0091 10.2912 14.0091C9.94744 14.0091 9.82244 13.7831 9.91119 13.3848L11.1624 7.87434ZM11.2499 5.42886C11.2499 5.73949 11.1182 6.03739 10.8838 6.25703C10.6494 6.47667 10.3315 6.60007 9.99994 6.60007C9.66842 6.60007 9.35048 6.47667 9.11606 6.25703C8.88164 6.03739 8.74994 5.73949 8.74994 5.42886C8.74994 5.11824 8.88164 4.82034 9.11606 4.6007C9.35048 4.38105 9.66842 4.25766 9.99994 4.25766C10.3315 4.25766 10.6494 4.38105 10.8838 4.6007C11.1182 4.82034 11.2499 5.11824 11.2499 5.42886Z" fill="black"/>
</svg>
