<svg width="17" height="18" viewBox="0 0 17 18" fill="none" xmlns="http://www.w3.org/2000/svg">
<path d="M8.44204 4.71391C6.09811 4.71391 4.20749 6.60496 4.20749 8.94941C4.20749 11.2939 6.09811 13.1849 8.44204 13.1849C10.786 13.1849 12.6766 11.2939 12.6766 8.94941C12.6766 6.60496 10.786 4.71391 8.44204 4.71391ZM8.44204 11.703C6.92733 11.703 5.68903 10.4681 5.68903 8.94941C5.68903 7.43068 6.92364 6.19579 8.44204 6.19579C9.96043 6.19579 11.1951 7.43068 11.1951 8.94941C11.1951 10.4681 9.95675 11.703 8.44204 11.703ZM13.8375 4.54066C13.8375 5.08991 13.3953 5.52858 12.8498 5.52858C12.3007 5.52858 11.8621 5.08623 11.8621 4.54066C11.8621 3.9951 12.3044 3.55275 12.8498 3.55275C13.3953 3.55275 13.8375 3.9951 13.8375 4.54066ZM16.6421 5.54332C16.5795 4.21996 16.2773 3.04773 15.308 2.08193C14.3424 1.11614 13.1704 0.813864 11.8474 0.747512C10.4838 0.6701 6.39663 0.6701 5.03302 0.747512C3.71364 0.810178 2.54167 1.11245 1.57241 2.07825C0.603139 3.04404 0.30462 4.21627 0.238282 5.53963C0.160888 6.90355 0.160888 10.9916 0.238282 12.3555C0.300934 13.6789 0.603139 14.8511 1.57241 15.8169C2.54167 16.7827 3.70995 17.085 5.03302 17.1513C6.39663 17.2287 10.4838 17.2287 11.8474 17.1513C13.1704 17.0886 14.3424 16.7864 15.308 15.8169C16.2736 14.8511 16.5758 13.6789 16.6421 12.3555C16.7195 10.9916 16.7195 6.90723 16.6421 5.54332ZM14.8805 13.8189C14.593 14.5415 14.0365 15.0981 13.3105 15.3893C12.2233 15.8206 9.64349 15.721 8.44204 15.721C7.24059 15.721 4.65711 15.8169 3.57359 15.3893C2.85125 15.1018 2.29475 14.5451 2.0036 13.8189C1.57241 12.7315 1.67191 10.1511 1.67191 8.94941C1.67191 7.7477 1.57609 5.16364 2.0036 4.07988C2.29106 3.35737 2.84756 2.80075 3.57359 2.50954C4.66079 2.07825 7.24059 2.17778 8.44204 2.17778C9.64349 2.17778 12.227 2.08193 13.3105 2.50954C14.0328 2.79707 14.5893 3.35369 14.8805 4.07988C15.3117 5.16732 15.2122 7.7477 15.2122 8.94941C15.2122 10.1511 15.3117 12.7352 14.8805 13.8189Z" fill="#16161A" fill-opacity="0.7"/>
</svg>
