<svg width="15" height="15" viewBox="0 0 15 15" fill="none" xmlns="http://www.w3.org/2000/svg">
<path fill-rule="evenodd" clip-rule="evenodd" d="M3.82063 14.4354H0.884949V5.63086H3.82063V14.4354Z" fill="#16161A" fill-opacity="0.7"/>
<path fill-rule="evenodd" clip-rule="evenodd" d="M2.34406 3.67411H2.32738C1.45131 3.67411 0.884949 3.02162 0.884949 2.20618C0.884949 1.37349 1.46856 0.739258 2.36126 0.739258C3.25395 0.739258 3.80369 1.37349 3.82063 2.20618C3.82063 3.02162 3.25395 3.67411 2.34406 3.67411Z" fill="#16161A" fill-opacity="0.7"/>
<path fill-rule="evenodd" clip-rule="evenodd" d="M14.5847 14.4352H11.7V9.83294C11.7 8.67695 11.2825 7.88814 10.2382 7.88814C9.44119 7.88814 8.96647 8.41991 8.75797 8.93353C8.68169 9.1176 8.66297 9.37407 8.66297 9.63117V14.4354H5.77777C5.77777 14.4354 5.81579 6.64029 5.77777 5.83309H8.66297V7.05154C9.04585 6.46581 9.73161 5.63086 11.2633 5.63086C13.1616 5.63086 14.5848 6.86061 14.5848 9.50288L14.5847 14.4352Z" fill="#16161A" fill-opacity="0.7"/>
</svg>
