<svg width="15" height="18" viewBox="0 0 15 18" fill="none" xmlns="http://www.w3.org/2000/svg">
<path d="M0.73334 6.43777C0.73334 5.66344 0.868699 4.9319 1.13544 4.24913C1.39028 3.58597 1.76891 2.97733 2.25115 2.45562C2.73241 1.94077 3.28314 1.49557 3.88741 1.13289C4.50739 0.757814 5.17859 0.474849 5.87997 0.292863C6.58982 0.106467 7.32076 0.0124656 8.05468 0.0131877C9.18831 0.0131877 10.2433 0.253052 11.2217 0.73079C12.1873 1.19982 13.0092 1.91961 13.6014 2.81492C14.2125 3.72561 14.5161 4.75573 14.5161 5.9043C14.5161 6.59303 14.4484 7.26684 14.3101 7.92573C14.1742 8.58424 13.9583 9.22365 13.6671 9.82971C13.3896 10.4164 13.0266 10.9587 12.5902 11.4391C12.1516 11.9118 11.6203 12.2892 11.0296 12.5478C10.3882 12.8289 9.69443 12.9704 8.99423 12.9629C8.50753 12.9629 8.02183 12.8484 7.5421 12.6185C7.06238 12.3896 6.71801 12.0751 6.51099 11.672C6.43833 11.9517 6.3388 12.3558 6.20643 12.8842C6.07903 13.4118 5.99344 13.7521 5.95562 13.9064C5.9158 14.0597 5.84215 14.3155 5.73466 14.6698C5.66176 14.9319 5.56825 15.1878 5.45499 15.4352L5.11261 16.106C4.96454 16.3939 4.79901 16.6724 4.61695 16.9401C4.43681 17.2008 4.21386 17.5123 3.94812 17.8706L3.79982 17.9234L3.70129 17.8159C3.59479 16.6882 3.54005 16.0134 3.54005 15.7905C3.54005 15.1306 3.61868 14.3901 3.77394 13.568C3.92622 12.7469 4.16708 11.7148 4.49055 10.4737C4.81402 9.23353 4.99914 8.50399 5.04891 8.28801C4.82099 7.82321 4.70553 7.21609 4.70553 6.46962C4.70553 5.87344 4.89165 5.31509 5.26488 4.78957C5.63911 4.26605 6.11188 4.00429 6.68516 4.00429C7.12408 4.00429 7.46447 4.1496 7.70832 4.44122C7.95316 4.73185 8.07259 5.09811 8.07259 5.545C8.07259 6.01875 7.91534 6.70451 7.59883 7.60126C7.28233 8.49901 7.12508 9.16884 7.12508 9.61373C7.12508 10.0646 7.28631 10.4418 7.60879 10.7374C7.92703 11.0332 8.34788 11.1934 8.78223 11.1843C9.17637 11.1843 9.54164 11.0947 9.88103 10.9146C10.2151 10.7397 10.5043 10.49 10.726 10.185C11.209 9.52246 11.5532 8.76926 11.7382 7.97051C11.8338 7.5505 11.9074 7.15139 11.9532 6.77617C12.002 6.39895 12.0229 6.04264 12.0229 5.70424C12.0229 4.46312 11.6288 3.4957 10.8455 2.80298C10.0582 2.11026 9.03304 1.76589 7.77202 1.76589C6.33781 1.76589 5.13848 2.22969 4.17803 3.16029C3.21658 4.0879 2.73287 5.26731 2.73287 6.69754C2.73287 7.01305 2.78065 7.31761 2.87122 7.61221C2.9598 7.90582 3.05634 8.13971 3.16085 8.31289C3.26436 8.48309 3.36189 8.6493 3.45048 8.80257C3.54005 8.95585 3.58683 9.06533 3.58683 9.13102C3.58683 9.33207 3.53408 9.59383 3.42758 9.9173C3.31711 10.2408 3.18672 10.402 3.02947 10.402C3.01454 10.402 2.95283 10.3911 2.84534 10.3682C2.47307 10.257 2.13687 10.0493 1.87095 9.76601C1.58873 9.47246 1.366 9.12704 1.21506 8.74883C1.06455 8.37197 0.947322 7.98265 0.864718 7.58534C0.775472 7.2094 0.731368 6.82415 0.73334 6.43777Z" fill="#16161A" fill-opacity="0.7"/>
</svg>
