<svg width="13" height="12" viewBox="0 0 13 12" fill="none" xmlns="http://www.w3.org/2000/svg">
<path fill-rule="evenodd" clip-rule="evenodd" d="M6.22542 3.55858L6.253 4.02402L5.79341 3.96703C4.12052 3.74856 2.65903 3.00764 1.41815 1.76328L0.811497 1.14585L0.655237 1.6018C0.324336 2.61819 0.535745 3.69156 1.22512 4.41348C1.59279 4.81243 1.51007 4.86943 0.875839 4.63195C0.655238 4.55596 0.462211 4.49897 0.443828 4.52747C0.379486 4.59396 0.600087 5.45836 0.77473 5.80032C1.01371 6.27526 1.50088 6.74071 2.034 7.01618L2.48439 7.23465L1.95127 7.24415C1.43653 7.24415 1.41815 7.25365 1.4733 7.45313C1.65714 8.07056 2.38328 8.72598 3.19215 9.01095L3.76204 9.21043L3.26569 9.51439C2.53035 9.95134 1.66633 10.1983 0.802305 10.2173C0.388678 10.2268 0.048584 10.2648 0.048584 10.2933C0.048584 10.3883 1.16997 10.9202 1.82259 11.1292C3.78042 11.7466 6.10593 11.4807 7.85235 10.4263C9.09324 9.67587 10.3341 8.18455 10.9132 6.74071C11.2257 5.9713 11.5382 4.56546 11.5382 3.89104C11.5382 3.45409 11.5658 3.3971 12.0805 2.87466C12.3839 2.57069 12.6688 2.23823 12.724 2.14324C12.8159 1.96276 12.8067 1.96276 12.3379 2.12424C11.5566 2.40921 11.4463 2.37121 11.8324 1.94376C12.1173 1.6398 12.4574 1.08886 12.4574 0.92738C12.4574 0.898883 12.3195 0.946378 12.1633 1.03187C11.9978 1.12686 11.6302 1.26934 11.3544 1.35483L10.858 1.51631L10.4077 1.20285C10.1595 1.03187 9.81019 0.84189 9.62636 0.784897C9.15758 0.651912 8.44062 0.67091 8.01781 0.822892C6.86884 1.25034 6.14269 2.35222 6.22542 3.55858Z" fill="#16161A" fill-opacity="0.7"/>
</svg>
